<svg xmlns="http://www.w3.org/2000/svg" viewBox="0 0 30 20" role="img" aria-label="Flag of China">
  <rect width="30" height="20" fill="#DE2910" />
  <polygon fill="#FFDE00" points="6,2 7.176,4.854 10.2,4.854 7.752,6.646 8.928,9.5 6,7.708 3.072,9.5 4.248,6.646 1.8,4.854 4.824,4.854" />
  <polygon fill="#FFDE00" points="12.2,2.4 12.572,3.31 13.54,3.31 12.754,3.868 13.128,4.778 12.2,4.22 11.272,4.778 11.646,3.868 10.86,3.31 11.828,3.31" />
  <polygon fill="#FFDE00" points="13.7,4.7 14.072,5.61 15.04,5.61 14.254,6.168 14.628,7.078 13.7,6.52 12.772,7.078 13.146,6.168 12.36,5.61 13.328,5.61" />
  <polygon fill="#FFDE00" points="13.2,7.4 13.572,8.31 14.54,8.31 13.754,8.868 14.128,9.778 13.2,9.22 12.272,9.778 12.646,8.868 11.86,8.31 12.828,8.31" />
  <polygon fill="#FFDE00" points="11.2,9.7 11.572,10.61 12.54,10.61 11.754,11.168 12.128,12.078 11.2,11.52 10.272,12.078 10.646,11.168 9.86,10.61 10.828,10.61" />
</svg>
